<mxfile host="app.diagrams.net" agent="Mozilla/5.0 (Windows NT 10.0; Win64; x64) AppleWebKit/537.36 (KHTML, like Gecko) Chrome/139.0.0.0 Safari/537.36" version="28.1.1" pages="3">
  <diagram name="Page-1" id="zNkxLT9lbjHD7tFRZEXo">
    <mxGraphModel dx="1042" dy="562" grid="1" gridSize="10" guides="1" tooltips="1" connect="1" arrows="1" fold="1" page="1" pageScale="1" pageWidth="827" pageHeight="1169" math="0" shadow="0">
      <root>
        <mxCell id="0" />
        <mxCell id="1" parent="0" />
        <mxCell id="1KfbFIwCocGOWoDZSYyY-1" value="" style="whiteSpace=wrap;html=1;aspect=fixed;" vertex="1" parent="1">
          <mxGeometry x="110" y="370" width="270" height="270" as="geometry" />
        </mxCell>
        <mxCell id="o9edZhLOBcFwyr7TggL4-1" value="" style="whiteSpace=wrap;html=1;shadow=0;dashed=0;fontSize=10;align=left;fillColor=#1A1A1A;strokeColor=#1A1A1A;fontColor=#FFFFFF;" vertex="1" parent="1">
          <mxGeometry x="160.6" y="470" width="168.8" height="16.88" as="geometry" />
        </mxCell>
        <mxCell id="o9edZhLOBcFwyr7TggL4-2" value="" style="whiteSpace=wrap;html=1;shadow=0;dashed=0;fontSize=10;align=left;fillColor=#1A1A1A;strokeColor=#1A1A1A;fontColor=#FFFFFF;" vertex="1" parent="1">
          <mxGeometry x="160.60000000000002" y="540" width="168.8" height="16.88" as="geometry" />
        </mxCell>
        <mxCell id="o9edZhLOBcFwyr7TggL4-3" value="Se connecter" style="whiteSpace=wrap;html=1;shadow=0;dashed=0;fontSize=10;align=left;fillColor=#33b5e5;strokeColor=#33B5E5;fontColor=#4D4D4D;" vertex="1" parent="1">
          <mxGeometry x="200" y="585" width="70" height="30" as="geometry" />
        </mxCell>
        <mxCell id="o9edZhLOBcFwyr7TggL4-4" value="Logs SystÃ¨me" style="text;html=1;align=center;verticalAlign=middle;whiteSpace=wrap;rounded=0;" vertex="1" parent="1">
          <mxGeometry x="200" y="390" width="90" height="30" as="geometry" />
        </mxCell>
        <mxCell id="o9edZhLOBcFwyr7TggL4-5" value="Email" style="text;html=1;align=center;verticalAlign=middle;whiteSpace=wrap;rounded=0;" vertex="1" parent="1">
          <mxGeometry x="210" y="440" width="60" height="30" as="geometry" />
        </mxCell>
        <mxCell id="o9edZhLOBcFwyr7TggL4-6" value="Mots de Passe" style="text;html=1;align=center;verticalAlign=middle;whiteSpace=wrap;rounded=0;" vertex="1" parent="1">
          <mxGeometry x="190" y="510" width="100" height="30" as="geometry" />
        </mxCell>
        <mxCell id="o9edZhLOBcFwyr7TggL4-7" value="" style="whiteSpace=wrap;html=1;aspect=fixed;" vertex="1" parent="1">
          <mxGeometry x="510" y="297.5" width="455" height="455" as="geometry" />
        </mxCell>
        <mxCell id="o9edZhLOBcFwyr7TggL4-8" value="&lt;font style=&quot;font-size: 15px;&quot;&gt;&lt;b&gt;Journaux&lt;/b&gt;&lt;/font&gt;" style="text;html=1;align=center;verticalAlign=middle;whiteSpace=wrap;rounded=0;" vertex="1" parent="1">
          <mxGeometry x="510" y="297.5" width="130" height="60" as="geometry" />
        </mxCell>
        <mxCell id="o9edZhLOBcFwyr7TggL4-9" value="Export CSV" style="whiteSpace=wrap;html=1;shadow=0;dashed=0;fontSize=10;align=left;fillColor=#33b5e5;strokeColor=#33B5E5;fontColor=#FFFFFF;" vertex="1" parent="1">
          <mxGeometry x="770" y="319.06" width="70" height="16.88" as="geometry" />
        </mxCell>
        <mxCell id="o9edZhLOBcFwyr7TggL4-10" value="" style="verticalLabelPosition=bottom;verticalAlign=top;html=1;shadow=0;dashed=0;strokeWidth=1;strokeColor=none;shape=rect;fillColor=#cc0000;" vertex="1" parent="1">
          <mxGeometry x="860" y="319.06" width="100" height="20" as="geometry" />
        </mxCell>
        <mxCell id="o9edZhLOBcFwyr7TggL4-11" value="deconnexion" style="text;html=1;align=center;verticalAlign=middle;whiteSpace=wrap;rounded=0;" vertex="1" parent="1">
          <mxGeometry x="880" y="314.06" width="60" height="30" as="geometry" />
        </mxCell>
        <mxCell id="o9edZhLOBcFwyr7TggL4-14" value="Reinitialiser" style="whiteSpace=wrap;html=1;shadow=0;dashed=0;fontSize=10;align=left;fillColor=#33b5e5;strokeColor=#33B5E5;fontColor=#FFFFFF;" vertex="1" parent="1">
          <mxGeometry x="520" y="380" width="60" height="16.88" as="geometry" />
        </mxCell>
        <mxCell id="o9edZhLOBcFwyr7TggL4-15" value="Recherche" style="whiteSpace=wrap;html=1;shadow=0;dashed=0;fontSize=10;align=left;fillColor=#33b5e5;strokeColor=#33B5E5;fontColor=#FFFFFF;" vertex="1" parent="1">
          <mxGeometry x="900" y="357.5" width="58.8" height="16.88" as="geometry" />
        </mxCell>
        <mxCell id="o9edZhLOBcFwyr7TggL4-18" value="Filtres" style="rounded=0;whiteSpace=wrap;html=1;" vertex="1" parent="1">
          <mxGeometry x="520" y="355.94" width="370" height="20" as="geometry" />
        </mxCell>
        <mxCell id="o9edZhLOBcFwyr7TggL4-19" value="&lt;font style=&quot;font-size: 22px;&quot;&gt;LOGS&lt;/font&gt;" style="whiteSpace=wrap;html=1;aspect=fixed;" vertex="1" parent="1">
          <mxGeometry x="570" y="420" width="310" height="310" as="geometry" />
        </mxCell>
      </root>
    </mxGraphModel>
  </diagram>
  <diagram id="B1ACu_ZzswZGqruHBQgz" name="Page-2">
    <mxGraphModel dx="1042" dy="562" grid="1" gridSize="10" guides="1" tooltips="1" connect="1" arrows="1" fold="1" page="1" pageScale="1" pageWidth="827" pageHeight="1169" math="0" shadow="0">
      <root>
        <mxCell id="0" />
        <mxCell id="1" parent="0" />
      </root>
    </mxGraphModel>
  </diagram>
  <diagram id="PvsuHfMcViIf6FNrmkok" name="Page-3">
    <mxGraphModel dx="1042" dy="562" grid="1" gridSize="10" guides="1" tooltips="1" connect="1" arrows="1" fold="1" page="1" pageScale="1" pageWidth="827" pageHeight="1169" math="0" shadow="0">
      <root>
        <mxCell id="0" />
        <mxCell id="1" parent="0" />
      </root>
    </mxGraphModel>
  </diagram>
</mxfile>
